User Type,Username,Date,Text
,phatt45,2011-07-07T12:27Z,"Tvrip not bad quality considering its from 2003.
Sorry should of included this but it wont let me edit yet."
,phatt45,2011-07-10T17:20Z,"Format                           : AVI
Format/Info                      : Audio Video Interleave
File size                        : 678 MiB
Duration                         : 1h 28mn
Overall bit rate                 : 1 068 Kbps
Writing library                  : VirtualDub build 18160/release

Video
ID                               : 0
Format                           : MPEG-4 Visual
Format settings, BVOP            : 1
Format settings, QPel            : No
Format settings, GMC             : No warppoints
Format settings, Matrix          : Default (H.263)
Muxing mode                      : Packed bitstream
Codec ID                         : DX50
Codec ID/Hint                    : DivX 5
Duration                         : 1h 28mn
Bit rate                         : 931 Kbps
Width                            : 712 pixels
Height                           : 484 pixels
Display aspect ratio             : 3:2
Frame rate                       : 25.000 fps
Color space                      : YUV
Chroma subsampling               : 4:2:0
Bit depth                        : 8 bits
Scan type                        : Progressive
Compression mode                 : Lossy
Bits/(Pixel*Frame)               : 0.108
Stream size                      : 590 MiB (87%)
Writing library                  : DivX 5.2.1 (WaffleDay) (UTC 2004-09-08)

Audio
ID                               : 1
Format                           : MPEG Audio
Format version                   : Version 1
Format profile                   : Layer 3
Mode                             : Joint stereo
Mode extension                   : MS Stereo
Codec ID                         : 55
Codec ID/Hint                    : MP3
Duration                         : 1h 28mn
Bit rate mode                    : Constant
Bit rate                         : 128 Kbps
Channel(s)                       : 2 channels
Sampling rate                    : 44.1 KHz
Compression mode                 : Lossy
Stream size                      : 81.0 MiB (12%)
Alignment                        : Split accross interleaves
Interleave, duration             : 40 ms (1.00 video frame)
Interleave, preload duration     : 501 ms"
